<svg xmlns="http://www.w3.org/2000/svg" viewBox="0 0 600 1000" width="600" height="1000">
  <defs>
    <linearGradient id="bg" x1="0" y1="0" x2="0" y2="1">
      <stop offset="0%" stop-color="#FAFAF5"/>
      <stop offset="100%" stop-color="#F0EDE4"/>
    </linearGradient>
    <linearGradient id="hair" x1="0.2" y1="0" x2="0.8" y2="1">
      <stop offset="0%" stop-color="#FFE566"/>
      <stop offset="40%" stop-color="#FFD633"/>
      <stop offset="100%" stop-color="#D4A800"/>
    </linearGradient>
    <linearGradient id="hairHighlight" x1="0" y1="0" x2="1" y2="1">
      <stop offset="0%" stop-color="#FFF5AA"/>
      <stop offset="100%" stop-color="#FFE566"/>
    </linearGradient>
    <linearGradient id="hairShadow" x1="0" y1="0" x2="0" y2="1">
      <stop offset="0%" stop-color="#D4A800"/>
      <stop offset="100%" stop-color="#B89200"/>
    </linearGradient>
    <linearGradient id="skin" x1="0" y1="0" x2="0" y2="1">
      <stop offset="0%" stop-color="#FFF2E0"/>
      <stop offset="100%" stop-color="#FFE4C8"/>
    </linearGradient>
    <linearGradient id="skinShadow" x1="0" y1="0" x2="0" y2="1">
      <stop offset="0%" stop-color="#F0D0AA"/>
      <stop offset="100%" stop-color="#E8C49A"/>
    </linearGradient>
    <linearGradient id="jacket" x1="0" y1="0" x2="0" y2="1">
      <stop offset="0%" stop-color="#333333"/>
      <stop offset="100%" stop-color="#1A1A1A"/>
    </linearGradient>
    <linearGradient id="jacketHL" x1="0" y1="0" x2="1" y2="0">
      <stop offset="0%" stop-color="#444"/>
      <stop offset="100%" stop-color="#2A2A2A"/>
    </linearGradient>
    <linearGradient id="yellow" x1="0" y1="0" x2="0" y2="1">
      <stop offset="0%" stop-color="#FFD633"/>
      <stop offset="100%" stop-color="#E6B800"/>
    </linearGradient>
    <linearGradient id="yellowBright" x1="0" y1="0" x2="0" y2="1">
      <stop offset="0%" stop-color="#FFE14D"/>
      <stop offset="100%" stop-color="#FFD633"/>
    </linearGradient>
    <linearGradient id="sock" x1="0" y1="0" x2="0" y2="1">
      <stop offset="0%" stop-color="#1C1C3D"/>
      <stop offset="100%" stop-color="#0E0E28"/>
    </linearGradient>
    <radialGradient id="irisL" cx="0.45" cy="0.4" r="0.55">
      <stop offset="0%" stop-color="#7DE8F0"/>
      <stop offset="35%" stop-color="#3CC8E0"/>
      <stop offset="70%" stop-color="#1A98B8"/>
      <stop offset="100%" stop-color="#106878"/>
    </radialGradient>
    <radialGradient id="irisR" cx="0.55" cy="0.4" r="0.55">
      <stop offset="0%" stop-color="#7DE8F0"/>
      <stop offset="35%" stop-color="#3CC8E0"/>
      <stop offset="70%" stop-color="#1A98B8"/>
      <stop offset="100%" stop-color="#106878"/>
    </radialGradient>
    <linearGradient id="hpBand" x1="0" y1="0" x2="0" y2="1">
      <stop offset="0%" stop-color="#555"/>
      <stop offset="100%" stop-color="#333"/>
    </linearGradient>
    <linearGradient id="hpCup" x1="0" y1="0" x2="0" y2="1">
      <stop offset="0%" stop-color="#FFE14D"/>
      <stop offset="50%" stop-color="#FFD633"/>
      <stop offset="100%" stop-color="#CCA800"/>
    </linearGradient>
    <clipPath id="bodyClip">
      <rect x="100" y="40" width="400" height="920"/>
    </clipPath>
    <!-- Soft shading filter -->
    <filter id="softGlow">
      <feGaussianBlur stdDeviation="1.5" result="blur"/>
      <feComposite in="SourceGraphic" in2="blur" operator="over"/>
    </filter>
  </defs>

  <!-- BG -->
  <rect width="600" height="1000" fill="url(#bg)"/>

  <g id="character">

    <!-- ===== SHADOW ON GROUND ===== -->
    <ellipse cx="300" cy="940" rx="90" ry="12" fill="#00000015"/>

    <!-- ===== BACK HAIR (behind head) ===== -->
    <g id="backHair">
      <!-- Nape hair strands -->
      <path d="M258 248 C255 270, 248 310, 250 340 C252 350, 258 352, 262 345 C265 330, 263 290, 262 260Z" fill="url(#hairShadow)" stroke="#B89200" stroke-width="0.5"/>
      <path d="M270 245 C272 270, 278 305, 278 335 C278 345, 272 348, 268 340 C265 325, 266 285, 268 258Z" fill="url(#hairShadow)" stroke="#B89200" stroke-width="0.5"/>
      <path d="M282 248 C285 268, 292 300, 295 328 C296 338, 290 342, 286 335 C282 320, 280 285, 280 260Z" fill="url(#hairShadow)" stroke="#B89200" stroke-width="0.5"/>
      <path d="M245 250 C240 275, 235 308, 237 332 C238 340, 244 342, 247 336 C249 322, 248 288, 247 262Z" fill="url(#hairShadow)" stroke="#B89200" stroke-width="0.5"/>
    </g>

    <!-- ===== LEFT LEG (skin) ===== -->
    <path d="M260 620 C258 650, 256 690, 255 720 C254 740, 254 758, 255 770 L280 770 C280 758, 280 740, 279 720 C278 690, 277 650, 276 620Z" fill="url(#skin)" stroke="#E0C090" stroke-width="0.6"/>
    <!-- Left leg shadow -->
    <path d="M262 625 C260 655, 258 695, 258 730 C258 742, 258 750, 259 760 L268 760 C267 748, 266 738, 266 725 C266 690, 265 655, 265 630Z" fill="url(#skinShadow)" opacity="0.4"/>

    <!-- ===== RIGHT LEG (skin) ===== -->
    <path d="M318 620 C320 650, 322 690, 323 720 C324 740, 324 758, 323 770 L298 770 C298 758, 298 740, 299 720 C300 690, 301 650, 302 620Z" fill="url(#skin)" stroke="#E0C090" stroke-width="0.6"/>
    <path d="M315 625 C317 655, 319 695, 320 730 C320 742, 320 750, 319 760 L310 760 C311 748, 312 738, 312 725 C312 690, 313 655, 313 630Z" fill="url(#skinShadow)" opacity="0.4"/>

    <!-- ===== LEFT SOCK (navy knee-high) ===== -->
    <path d="M254 658 C253 688, 253 730, 254 760 C254 768, 255 774, 255 778 L280 778 C280 774, 280 768, 280 760 C280 730, 279 688, 278 658Z" fill="url(#sock)" stroke="#0A0A25" stroke-width="0.8"/>
    <!-- Sock yellow band -->
    <path d="M254 658 C254 654, 255 651, 256 648 L277 648 C278 651, 279 654, 278 658Z" fill="#FFD633" stroke="#CCA800" stroke-width="0.5"/>
    <!-- Sock fold lines -->
    <path d="M258 700 Q267 703, 276 700" stroke="#0A0A25" stroke-width="0.6" fill="none" opacity="0.4"/>
    <path d="M256 720 Q267 723, 278 720" stroke="#0A0A25" stroke-width="0.5" fill="none" opacity="0.3"/>

    <!-- ===== RIGHT SOCK ===== -->
    <path d="M298 658 C299 688, 299 730, 298 760 C298 768, 298 774, 298 778 L323 778 C323 774, 323 768, 323 760 C324 730, 324 688, 323 658Z" fill="url(#sock)" stroke="#0A0A25" stroke-width="0.8"/>
    <path d="M298 658 C298 654, 299 651, 300 648 L322 648 C323 651, 323 654, 323 658Z" fill="#FFD633" stroke="#CCA800" stroke-width="0.5"/>
    <path d="M302 700 Q311 703, 320 700" stroke="#0A0A25" stroke-width="0.6" fill="none" opacity="0.4"/>
    <path d="M300 720 Q311 723, 322 720" stroke="#0A0A25" stroke-width="0.5" fill="none" opacity="0.3"/>

    <!-- ===== LEFT SHOE ===== -->
    <g id="leftShoe">
      <path d="M248 772 C245 780, 240 792, 238 804 C236 812, 237 820, 240 825 C244 830, 260 834, 275 834 C284 834, 288 830, 288 824 C288 816, 286 800, 284 790 C282 780, 281 774, 280 772Z" fill="url(#yellow)" stroke="#CCA800" stroke-width="0.8"/>
      <!-- Shoe sole -->
      <path d="M237 822 C236 826, 238 832, 242 836 C248 840, 265 842, 278 840 C286 838, 290 832, 290 826 C290 830, 286 834, 278 836 C265 838, 248 838, 242 834 C238 830, 237 826, 237 822Z" fill="#1A1A1A" stroke="#0A0A0A" stroke-width="0.5"/>
      <!-- Shoe tongue -->
      <path d="M256 773 C254 780, 252 790, 252 798 L274 798 C274 790, 272 780, 270 773Z" fill="#2A2A2A"/>
      <!-- Laces -->
      <path d="M258 780 L268 780 M256 786 L270 786 M255 792 L271 792" stroke="#1A1A1A" stroke-width="1" fill="none"/>
      <!-- Shoe accent -->
      <path d="M240 808 C242 800, 248 795, 252 798 L250 810 C245 815, 240 814, 240 808Z" fill="#1A1A1A" opacity="0.7"/>
    </g>

    <!-- ===== RIGHT SHOE ===== -->
    <g id="rightShoe">
      <path d="M292 772 C295 780, 298 792, 300 804 C302 812, 301 820, 298 825 C294 830, 318 834, 303 834 C294 834, 290 830, 290 824 C290 816, 296 800, 298 790 C300 780, 299 774, 298 772Z" fill="url(#yellow)" stroke="#CCA800" stroke-width="0.8"/>
      <path d="M293 772 C296 780, 300 792, 302 804 C304 812, 303 820, 300 825 C296 830, 280 834, 313 834 C322 834, 340 834, 340 824 C340 816, 330 800, 320 790 C316 782, 302 774, 298 772Z" fill="url(#yellow)" stroke="#CCA800" stroke-width="0.8"/>
      <!-- Sole -->
      <path d="M298 822 C296 826, 298 832, 302 836 C308 840, 325 842, 338 840 C342 838, 344 832, 342 826 C342 830, 340 834, 335 836 C325 838, 308 838, 302 834 C298 830, 298 826, 298 822Z" fill="#1A1A1A" stroke="#0A0A0A" stroke-width="0.5"/>
      <!-- Tongue -->
      <path d="M306 773 C308 780, 310 790, 310 798 L324 798 C324 790, 322 780, 320 773Z" fill="#2A2A2A"/>
      <!-- Laces -->
      <path d="M308 780 L322 780 M309 786 L323 786 M310 792 L324 792" stroke="#1A1A1A" stroke-width="1" fill="none"/>
    </g>

    <!-- ===== SHORTS (yellow) ===== -->
    <g id="shorts">
      <path d="M248 530 C242 535, 238 545, 236 558 C234 572, 234 590, 240 610 C244 620, 252 628, 260 632 L276 632 C280 628, 284 622, 286 612 C290 594, 290 575, 288 560 C286 548, 282 540, 278 535 L270 530Z" fill="url(#yellowBright)" stroke="#CCA800" stroke-width="0.8"/>
      <path d="M278 535 C284 540, 290 548, 292 560 C294 575, 294 594, 290 612 C286 624, 280 632, 272 636 L316 636 C326 628, 334 618, 338 604 C342 588, 342 568, 340 555 C338 542, 332 534, 326 530L278 530Z" fill="url(#yellowBright)" stroke="#CCA800" stroke-width="0.8"/>
      <!-- Shorts center seam -->
      <path d="M278 540 C280 560, 282 585, 282 610 C282 622, 280 630, 278 636" stroke="#D4A800" stroke-width="1.2" fill="none"/>
      <!-- Left shorts fold -->
      <path d="M250 560 C255 570, 254 590, 248 608" stroke="#D4A800" stroke-width="0.8" fill="none" opacity="0.5"/>
      <!-- Right shorts fold -->
      <path d="M320 560 C318 575, 320 592, 326 608" stroke="#D4A800" stroke-width="0.8" fill="none" opacity="0.5"/>
      <!-- Waistband -->
      <path d="M248 530 C258 526, 278 524, 300 524 C315 524, 325 526, 330 530 L326 530 C320 528, 310 526, 300 526 C280 526, 260 528, 250 530Z" fill="#222" stroke="#111" stroke-width="0.5"/>
      <!-- Belt loop details -->
      <rect x="260" y="524" width="4" height="10" rx="1" fill="#222" stroke="#111" stroke-width="0.3"/>
      <rect x="290" y="524" width="4" height="10" rx="1" fill="#222" stroke="#111" stroke-width="0.3"/>
      <rect x="310" y="524" width="4" height="10" rx="1" fill="#222" stroke="#111" stroke-width="0.3"/>
    </g>

    <!-- ===== TORSO (white inner shirt) ===== -->
    <g id="innerShirt">
      <path d="M260 310 C256 340, 252 380, 250 420 C248 450, 247 490, 248 530 L326 530 C328 490, 328 450, 326 420 C324 380, 320 340, 316 310Z" fill="white" stroke="#E0E0E0" stroke-width="0.6"/>
      <!-- Shirt shadow left -->
      <path d="M260 315 C258 340, 255 380, 253 420 C252 450, 252 490, 253 525 L270 530 C268 490, 266 450, 265 420 C264 380, 262 345, 262 320Z" fill="#F0F0F0" opacity="0.6"/>
      <!-- Center seam -->
      <path d="M290 315 C289 360, 288 420, 288 480 C288 500, 288 520, 288 530" stroke="#E8E8E8" stroke-width="0.7" fill="none" stroke-dasharray="5,5"/>
      <!-- Collar V -->
      <path d="M270 305 C275 315, 282 325, 290 335 C298 325, 305 315, 310 305" stroke="#E0E0E0" stroke-width="1" fill="none"/>
    </g>

    <!-- ===== TIE/RIBBON (yellow) ===== -->
    <g id="tie">
      <path d="M282 310 L290 340 L298 310 L294 308 L290 332 L286 308Z" fill="#FFD633" stroke="#CCA800" stroke-width="0.6"/>
      <path d="M285 316 L290 335 L295 316" fill="#E6B800" opacity="0.5"/>
      <!-- Tie knot -->
      <path d="M284 308 C286 305, 294 305, 296 308 L298 312 C295 310, 285 310, 282 312Z" fill="#FFD633" stroke="#CCA800" stroke-width="0.5"/>
    </g>

    <!-- ===== JACKET LEFT PANEL ===== -->
    <g id="jacketLeft">
      <path d="M230 300 C220 310, 212 330, 208 360 C204 395, 202 435, 204 475 C205 500, 208 520, 210 535 L250 535 C249 500, 248 460, 250 420 C252 380, 256 340, 260 310 L248 300Z" fill="url(#jacket)" stroke="#111" stroke-width="0.8"/>
      <!-- Jacket edge highlight -->
      <path d="M260 310 C256 340, 252 380, 250 420 C248 460, 248 500, 249 535" stroke="#444" stroke-width="1" fill="none"/>
      <!-- Yellow stripe -->
      <path d="M210 370 C208 400, 206 440, 207 475 L212 475 C211 440, 213 400, 215 370Z" fill="#FFD633" opacity="0.9"/>
      <!-- Pocket -->
      <path d="M215 470 L245 470 L245 510 C245 514, 242 516, 238 516 L222 516 C218 516, 215 514, 215 510Z" fill="#222" stroke="#FFD633" stroke-width="0.8"/>
      <path d="M215 470 L245 470" stroke="#FFD633" stroke-width="1.2"/>
    </g>

    <!-- ===== JACKET RIGHT PANEL ===== -->
    <g id="jacketRight">
      <path d="M346 300 C356 310, 364 330, 368 360 C372 395, 374 435, 372 475 C371 500, 368 520, 366 535 L326 535 C327 500, 328 460, 326 420 C324 380, 320 340, 316 310 L328 300Z" fill="url(#jacket)" stroke="#111" stroke-width="0.8"/>
      <path d="M316 310 C320 340, 324 380, 326 420 C328 460, 328 500, 327 535" stroke="#444" stroke-width="1" fill="none"/>
      <!-- Yellow stripe -->
      <path d="M366 370 C368 400, 370 440, 369 475 L364 475 C365 440, 363 400, 361 370Z" fill="#FFD633" opacity="0.9"/>
      <!-- Pocket -->
      <path d="M331 470 L361 470 L361 510 C361 514, 358 516, 354 516 L338 516 C334 516, 331 514, 331 510Z" fill="#222" stroke="#FFD633" stroke-width="0.8"/>
      <path d="M331 470 L361 470" stroke="#FFD633" stroke-width="1.2"/>
    </g>

    <!-- ===== JACKET COLLAR ===== -->
    <g id="collar">
      <path d="M248 300 C240 295, 232 292, 226 296 C222 298, 218 308, 230 310 L260 310 C262 305, 256 298, 248 300Z" fill="#2A2A2A" stroke="#111" stroke-width="0.6"/>
      <path d="M328 300 C336 295, 344 292, 350 296 C354 298, 358 308, 346 310 L316 310 C314 305, 320 298, 328 300Z" fill="#2A2A2A" stroke="#111" stroke-width="0.6"/>
      <!-- Collar yellow lining -->
      <path d="M232 306 L258 308 C257 304, 252 300, 248 300 C242 300, 236 302, 232 306Z" fill="#FFD633" opacity="0.7"/>
      <path d="M344 306 L318 308 C319 304, 324 300, 328 300 C334 300, 340 302, 344 306Z" fill="#FFD633" opacity="0.7"/>
    </g>

    <!-- ===== LEFT ARM ===== -->
    <g id="leftArm">
      <!-- Sleeve -->
      <path d="M230 300 C218 308, 200 325, 186 350 C174 372, 162 400, 155 425 C152 435, 153 440, 158 442 L178 442 C183 440, 185 436, 184 428 C186 405, 193 380, 204 358 C214 338, 225 318, 234 308Z" fill="url(#jacket)" stroke="#111" stroke-width="0.8"/>
      <!-- Sleeve yellow stripes -->
      <path d="M198 332 C190 348, 182 370, 176 392 L180 392 C186 370, 194 348, 202 332Z" fill="#FFD633"/>
      <path d="M205 322 C198 336, 192 352, 186 372 L190 372 C196 352, 202 336, 208 323Z" fill="#FFD633"/>
      <!-- Forearm (skin) -->
      <path d="M155 425 C152 445, 148 470, 146 495 C144 510, 144 520, 146 528 C148 533, 152 535, 158 535 L172 535 C178 535, 182 533, 184 528 C186 520, 186 510, 184 495 C182 470, 180 445, 178 425Z" fill="url(#skin)" stroke="#E0C090" stroke-width="0.5"/>
      <!-- Forearm shadow -->
      <path d="M158 430 C156 450, 154 475, 152 498 C151 510, 152 522, 154 530 L163 532 C161 524, 160 512, 160 500 C161 478, 163 455, 164 435Z" fill="url(#skinShadow)" opacity="0.35"/>
      <!-- Wristband -->
      <path d="M154 422 C153 426, 153 430, 155 434 L179 434 C181 430, 181 426, 180 422Z" fill="#222" stroke="#FFD633" stroke-width="1"/>
      <!-- Hand -->
      <path d="M146 528 C143 540, 142 550, 145 558 C147 563, 150 565, 155 566 C158 566, 162 566, 166 564 L170 558 C173 552, 175 544, 174 536 L172 528Z" fill="url(#skin)" stroke="#E0C090" stroke-width="0.5"/>
      <!-- Fingers hint -->
      <path d="M148 555 C150 560, 153 562, 156 562" stroke="#E0C090" stroke-width="0.6" fill="none"/>
      <path d="M153 558 C155 563, 158 564, 162 562" stroke="#E0C090" stroke-width="0.6" fill="none"/>
    </g>

    <!-- ===== RIGHT ARM ===== -->
    <g id="rightArm">
      <!-- Sleeve -->
      <path d="M346 300 C358 308, 376 325, 390 350 C402 372, 414 400, 421 425 C424 435, 423 440, 418 442 L398 442 C393 440, 391 436, 392 428 C390 405, 383 380, 372 358 C362 338, 351 318, 342 308Z" fill="url(#jacket)" stroke="#111" stroke-width="0.8"/>
      <!-- Sleeve yellow stripes -->
      <path d="M378 332 C386 348, 394 370, 400 392 L396 392 C390 370, 382 348, 374 332Z" fill="#FFD633"/>
      <path d="M371 322 C378 336, 384 352, 390 372 L386 372 C380 352, 374 336, 368 323Z" fill="#FFD633"/>
      <!-- Forearm -->
      <path d="M421 425 C424 445, 428 470, 430 495 C432 510, 432 520, 430 528 C428 533, 424 535, 418 535 L404 535 C398 535, 394 533, 392 528 C390 520, 390 510, 392 495 C394 470, 396 445, 398 425Z" fill="url(#skin)" stroke="#E0C090" stroke-width="0.5"/>
      <path d="M416 430 C418 450, 420 475, 422 498 C423 510, 422 522, 420 530 L412 532 C414 524, 415 512, 415 500 C414 478, 412 455, 411 435Z" fill="url(#skinShadow)" opacity="0.35"/>
      <!-- Wristband -->
      <path d="M420 422 C421 426, 421 430, 420 434 L396 434 C395 430, 395 426, 396 422Z" fill="#222" stroke="#FFD633" stroke-width="1"/>
      <!-- Hand -->
      <path d="M430 528 C433 540, 434 550, 431 558 C429 563, 426 565, 421 566 C418 566, 414 566, 410 564 L406 558 C403 552, 401 544, 402 536 L404 528Z" fill="url(#skin)" stroke="#E0C090" stroke-width="0.5"/>
      <path d="M428 555 C426 560, 423 562, 420 562" stroke="#E0C090" stroke-width="0.6" fill="none"/>
      <path d="M423 558 C421 563, 418 564, 414 562" stroke="#E0C090" stroke-width="0.6" fill="none"/>
    </g>

    <!-- ===== NECK ===== -->
    <path d="M272 265 C270 280, 268 295, 268 308 L308 308 C308 295, 306 280, 304 265Z" fill="url(#skin)" stroke="#E0C090" stroke-width="0.4"/>
    <path d="M275 268 C273 282, 272 296, 272 306 L290 308 C289 296, 288 282, 288 270Z" fill="url(#skinShadow)" opacity="0.3"/>

    <!-- ===== HEAD ===== -->
    <g id="head">
      <!-- Head shape -->
      <path d="M240 180 C230 185, 222 200, 220 220 C218 240, 224 258, 235 268 C245 276, 260 280, 288 280 C310 278, 328 268, 338 255 C348 240, 350 218, 346 200 C342 185, 334 176, 324 174 C312 172, 290 170, 270 172 C255 174, 245 176, 240 180Z" fill="url(#skin)" stroke="#E0C090" stroke-width="0.5"/>
      <!-- Cheek shadow left -->
      <path d="M232 240 C228 248, 230 260, 240 268 C248 274, 255 272, 255 265 C255 258, 248 248, 240 242Z" fill="url(#skinShadow)" opacity="0.2"/>
      <!-- Cheek shadow right -->
      <path d="M340 235 C344 245, 342 258, 334 265 C326 270, 320 268, 320 262 C320 255, 328 245, 335 240Z" fill="url(#skinShadow)" opacity="0.2"/>
    </g>

    <!-- ===== EYES ===== -->
    <g id="eyes">
      <!-- Left eye -->
      <g id="leftEye">
        <!-- Eye white -->
        <path d="M248 210 C240 208, 232 212, 228 220 C225 228, 226 238, 232 244 C238 248, 248 248, 255 244 C260 240, 262 232, 260 222 C258 214, 254 210, 248 210Z" fill="white" stroke="#555" stroke-width="0.8"/>
        <!-- Upper eyelid line (thick) -->
        <path d="M228 213 C235 207, 248 205, 260 212" stroke="#222" stroke-width="2.5" fill="none" stroke-linecap="round"/>
        <!-- Eyelashes -->
        <path d="M228 213 C225 208, 223 204, 220 202" stroke="#222" stroke-width="1.5" fill="none" stroke-linecap="round"/>
        <path d="M233 209 C231 205, 229 202, 226 200" stroke="#222" stroke-width="1" fill="none" stroke-linecap="round"/>
        <!-- Iris -->
        <ellipse cx="246" cy="228" rx="13" ry="15" fill="url(#irisL)"/>
        <!-- Pupil -->
        <ellipse cx="246" cy="230" rx="6" ry="8" fill="#0A3A4A"/>
        <!-- Eye highlight top -->
        <ellipse cx="240" cy="220" rx="5" ry="4" fill="white" opacity="0.9"/>
        <!-- Eye highlight bottom -->
        <circle cx="250" cy="234" r="2.5" fill="white" opacity="0.6"/>
        <!-- Lower lid -->
        <path d="M232 244 C240 248, 252 248, 258 242" stroke="#AA8866" stroke-width="0.8" fill="none"/>
      </g>

      <!-- Right eye -->
      <g id="rightEye">
        <path d="M318 210 C326 208, 334 212, 338 220 C341 228, 340 238, 334 244 C328 248, 318 248, 311 244 C306 240, 304 232, 306 222 C308 214, 312 210, 318 210Z" fill="white" stroke="#555" stroke-width="0.8"/>
        <path d="M338 213 C331 207, 318 205, 306 212" stroke="#222" stroke-width="2.5" fill="none" stroke-linecap="round"/>
        <path d="M338 213 C341 208, 343 204, 346 202" stroke="#222" stroke-width="1.5" fill="none" stroke-linecap="round"/>
        <path d="M333 209 C335 205, 337 202, 340 200" stroke="#222" stroke-width="1" fill="none" stroke-linecap="round"/>
        <ellipse cx="320" cy="228" rx="13" ry="15" fill="url(#irisR)"/>
        <ellipse cx="320" cy="230" rx="6" ry="8" fill="#0A3A4A"/>
        <ellipse cx="316" cy="220" rx="5" ry="4" fill="white" opacity="0.9"/>
        <circle cx="324" cy="234" r="2.5" fill="white" opacity="0.6"/>
        <path d="M334 244 C326 248, 314 248, 308 242" stroke="#AA8866" stroke-width="0.8" fill="none"/>
      </g>

      <!-- Eyebrows -->
      <path d="M228 200 C236 194, 248 193, 258 197" stroke="#CC9900" stroke-width="2.8" fill="none" stroke-linecap="round"/>
      <path d="M338 200 C330 194, 318 193, 308 197" stroke="#CC9900" stroke-width="2.8" fill="none" stroke-linecap="round"/>
    </g>

    <!-- ===== NOSE ===== -->
    <path d="M282 248 C280 252, 280 256, 282 258 C284 260, 286 259, 286 256" stroke="#DDB88A" stroke-width="1" fill="none" stroke-linecap="round"/>

    <!-- ===== MOUTH ===== -->
    <g id="mouth">
      <path d="M270 272 C276 276, 284 278, 290 278 C296 278, 302 276, 306 272" stroke="#CC7766" stroke-width="1.6" fill="none" stroke-linecap="round"/>
      <!-- Slight lip color -->
      <path d="M276 274 C282 278, 292 278, 300 274 C296 276, 284 278, 276 274Z" fill="#E8A090" opacity="0.4"/>
    </g>

    <!-- ===== BLUSH ===== -->
    <ellipse cx="238" cy="250" rx="12" ry="5" fill="#FFAAAA" opacity="0.15"/>
    <ellipse cx="330" cy="250" rx="12" ry="5" fill="#FFAAAA" opacity="0.15"/>

    <!-- ===== HAIR (front - bangs and spikes) ===== -->
    <g id="frontHair">
      <!-- Main hair mass top -->
      <path d="M225 180 C218 168, 214 148, 220 130 C226 115, 240 105, 260 100 C275 97, 300 98, 320 108 C335 115, 345 130, 348 150 C350 162, 347 178, 342 188 C338 175, 330 158, 315 148 C298 138, 275 134, 258 136 C242 138, 230 148, 225 165Z" fill="url(#hair)" stroke="#CCA800" stroke-width="0.6"/>

      <!-- Spiky bangs - left to right -->
      <path d="M218 195 C215 180, 210 162, 200 148 C196 142, 192 140, 190 145 C188 152, 194 168, 204 182 C210 190, 216 195, 220 198Z" fill="url(#hair)" stroke="#CCA800" stroke-width="0.5"/>
      <path d="M226 188 C222 172, 216 152, 206 135 C202 128, 198 126, 198 132 C198 140, 206 160, 215 175 C220 182, 224 188, 228 192Z" fill="url(#hairHighlight)" stroke="#CCA800" stroke-width="0.4"/>
      <path d="M238 182 C234 165, 228 140, 222 120 C220 114, 218 112, 218 118 C218 128, 226 152, 232 168 C236 178, 238 184, 240 188Z" fill="url(#hair)" stroke="#CCA800" stroke-width="0.5"/>
      <path d="M252 178 C250 158, 248 130, 250 108 C250 100, 252 95, 255 98 C257 104, 256 130, 254 155 C253 168, 252 178, 252 182Z" fill="url(#hairHighlight)" stroke="#CCA800" stroke-width="0.4"/>
      <path d="M265 175 C265 155, 268 128, 275 105 C277 98, 280 94, 282 98 C283 105, 278 130, 272 155 C269 168, 266 178, 265 180Z" fill="url(#hair)" stroke="#CCA800" stroke-width="0.5"/>
      <path d="M280 178 C282 158, 290 132, 300 115 C304 108, 308 106, 308 112 C308 120, 298 145, 290 165 C286 175, 282 182, 280 185Z" fill="url(#hairHighlight)" stroke="#CCA800" stroke-width="0.4"/>
      <path d="M295 182 C300 168, 310 148, 322 135 C328 128, 332 126, 330 132 C328 140, 318 158, 308 175 C302 184, 298 190, 296 192Z" fill="url(#hair)" stroke="#CCA800" stroke-width="0.5"/>
      <path d="M336 188 C340 175, 348 155, 356 142 C360 136, 362 135, 360 140 C358 148, 348 168, 340 182 C336 190, 334 195, 334 198Z" fill="url(#hair)" stroke="#CCA800" stroke-width="0.5"/>
      <path d="M342 195 C346 182, 352 165, 360 150 C364 144, 366 142, 365 148 C363 156, 355 172, 348 186 C344 192, 342 196, 342 198Z" fill="url(#hairHighlight)" stroke="#CCA800" stroke-width="0.4"/>

      <!-- Top spikes -->
      <path d="M250 100 C248 80, 242 55, 235 35 C233 28, 234 24, 237 28 C242 36, 250 60, 254 82 C256 92, 256 98, 255 102Z" fill="url(#hair)" stroke="#CCA800" stroke-width="0.6"/>
      <path d="M265 98 C266 75, 270 48, 278 28 C280 22, 283 20, 284 25 C285 32, 278 58, 272 80 C269 92, 266 98, 265 100Z" fill="url(#hairHighlight)" stroke="#CCA800" stroke-width="0.5"/>
      <path d="M278 102 C282 82, 290 58, 300 40 C304 34, 306 33, 305 38 C304 46, 294 68, 286 88 C282 98, 280 104, 278 106Z" fill="url(#hair)" stroke="#CCA800" stroke-width="0.5"/>
      <path d="M240 105 C236 88, 228 65, 218 48 C214 42, 212 40, 214 44 C218 52, 228 72, 236 90 C240 100, 242 106, 242 108Z" fill="url(#hair)" stroke="#CCA800" stroke-width="0.5"/>

      <!-- Side hair left -->
      <path d="M218 198 C212 210, 208 225, 210 242 C211 250, 214 255, 218 250 C220 242, 220 228, 222 215 C223 208, 222 200, 220 198Z" fill="url(#hair)" stroke="#CCA800" stroke-width="0.5"/>
      <path d="M222 200 C218 215, 215 232, 216 252 C217 262, 220 268, 224 264 C226 258, 226 242, 227 225 C228 215, 226 205, 224 200Z" fill="url(#hairHighlight)" stroke="#CCA800" stroke-width="0.4"/>

      <!-- Side hair right -->
      <path d="M342 198 C348 210, 352 225, 350 242 C349 250, 346 255, 342 250 C340 242, 340 228, 338 215 C337 208, 338 200, 340 198Z" fill="url(#hair)" stroke="#CCA800" stroke-width="0.5"/>
      <path d="M338 200 C342 215, 345 232, 344 252 C343 262, 340 268, 336 264 C334 258, 334 242, 333 225 C332 215, 334 205, 336 200Z" fill="url(#hairHighlight)" stroke="#CCA800" stroke-width="0.4"/>

      <!-- Hair shine streaks -->
      <path d="M240 130 C245 125, 255 122, 260 128" stroke="#FFF5CC" stroke-width="1.5" fill="none" opacity="0.5" stroke-linecap="round"/>
      <path d="M285 125 C290 120, 298 118, 305 124" stroke="#FFF5CC" stroke-width="1.5" fill="none" opacity="0.5" stroke-linecap="round"/>
    </g>

    <!-- ===== PONYTAIL (small upward) ===== -->
    <g id="ponytail">
      <path d="M262 100 C258 85, 252 60, 248 40 C246 30, 247 22, 252 18 C258 14, 268 14, 278 18 C286 22, 290 32, 288 44 C284 62, 276 82, 272 98Z" fill="url(#hair)" stroke="#CCA800" stroke-width="0.7"/>
      <path d="M265 95 C262 80, 258 58, 256 42 C255 34, 256 28, 260 25 C264 22, 270 24, 274 30 C278 38, 276 58, 272 78 C270 88, 268 95, 267 98Z" fill="url(#hairHighlight)" stroke="#CCA800" stroke-width="0.4"/>
      <!-- Hair tie -->
      <ellipse cx="267" cy="100" rx="10" ry="6" fill="#222" stroke="#FFD633" stroke-width="1.2"/>
    </g>

    <!-- ===== HEADPHONES ===== -->
    <g id="headphones">
      <!-- Band -->
      <path d="M218 190 C215 168, 222 138, 240 118 C255 102, 280 95, 300 98 C320 102, 340 118, 350 140 C356 155, 358 175, 352 190" stroke="url(#hpBand)" stroke-width="5" fill="none" stroke-linecap="round"/>
      <path d="M220 188 C217 168, 224 140, 242 120 C256 106, 280 99, 300 102 C318 106, 338 120, 348 142 C354 156, 356 174, 350 190" stroke="#666" stroke-width="2" fill="none" stroke-linecap="round"/>

      <!-- Left ear cup -->
      <ellipse cx="215" cy="205" rx="18" ry="26" fill="url(#hpCup)" stroke="#AA8800" stroke-width="1.5"/>
      <ellipse cx="215" cy="205" rx="13" ry="20" fill="#333" stroke="#444" stroke-width="0.5"/>
      <ellipse cx="215" cy="205" rx="8" ry="13" fill="#444"/>
      <ellipse cx="213" cy="200" rx="3" ry="5" fill="#555" opacity="0.5"/>

      <!-- Right ear cup -->
      <ellipse cx="352" cy="205" rx="18" ry="26" fill="url(#hpCup)" stroke="#AA8800" stroke-width="1.5"/>
      <ellipse cx="352" cy="205" rx="13" ry="20" fill="#333" stroke="#444" stroke-width="0.5"/>
      <ellipse cx="352" cy="205" rx="8" ry="13" fill="#444"/>
      <ellipse cx="350" cy="200" rx="3" ry="5" fill="#555" opacity="0.5"/>
    </g>

    <!-- ===== JACKET DETAILS ===== -->
    <!-- 02 on left jacket -->
    <text x="216" y="500" font-family="'Arial Black', 'Impact', sans-serif" font-size="16" font-weight="900" fill="#FFD633" opacity="0.7" transform="rotate(-3, 216, 500)">02</text>
    <!-- Stars -->
    <polygon points="212,450 214,444 216,450 210,446 218,446" fill="#FFD633" stroke="none" opacity="0.6"/>
    <polygon points="358,450 356,444 354,450 360,446 352,446" fill="#FFD633" stroke="none" opacity="0.6"/>

  </g>

  <!-- ===== LABEL ===== -->
  <g opacity="0.5">
    <text x="300" y="970" font-family="'Segoe UI', 'Helvetica Neue', sans-serif" font-size="13" fill="#777" text-anchor="middle" letter-spacing="4" font-weight="300">KAGAMINE LEN — STYLISH ENERGY</text>
    <text x="300" y="988" font-family="'Segoe UI', 'Helvetica Neue', sans-serif" font-size="9" fill="#999" text-anchor="middle" letter-spacing="3">PROJECT DIVA</text>
  </g>
</svg>
